<svg width="96" height="115" viewBox="0 0 96 115" version="1.1" xmlns="http://www.w3.org/2000/svg" xmlns:xlink="http://www.w3.org/1999/xlink">
<title>astronaut - head only</title>
<desc>Created using Figma</desc>
<g id="Canvas" transform="translate(-428 936)">
<g id="astronaut - head only">
<g id="Vector">
<use xlink:href="#path0_fill" transform="translate(443.827 -845.325)" fill="#FAAC2B"/>
</g>
<g id="Vector">
<use xlink:href="#path1_fill" transform="translate(467.6 -846.381)" fill="#FAAC2B"/>
</g>
<g id="Vector">
<use xlink:href="#path2_fill" transform="translate(442.156 -846.894)" fill="#025588"/>
</g>
<g id="Vector">
<use xlink:href="#path3_fill" transform="translate(468.552 -847.957)" fill="#025588"/>
</g>
<g id="Vector">
<use xlink:href="#path4_fill" transform="translate(497.567 -916.884)" fill="#FAAC2B"/>
</g>
<g id="Vector">
<use xlink:href="#path5_stroke" transform="translate(497.567 -916.884)" fill="#005588"/>
</g>
<g id="Vector">
<use xlink:href="#path6_fill" transform="translate(505.205 -917.719)" fill="#025588"/>
</g>
<g id="Vector">
<use xlink:href="#path7_fill" transform="translate(511.554 -912.763)" fill="#065588"/>
</g>
<g id="Vector">
<use xlink:href="#path8_fill" transform="translate(511.554 -907.426)" fill="#065588"/>
</g>
<g id="Vector">
<use xlink:href="#path9_fill" transform="translate(432.023 -916.884)" fill="#FAAC2B"/>
</g>
<g id="Vector">
<use xlink:href="#path10_stroke" transform="translate(432.023 -916.884)" fill="#005588"/>
</g>
<g id="Vector">
<use xlink:href="#path11_fill" transform="translate(430.686 -917.719)" fill="#025588"/>
</g>
<g id="Vector">
<use xlink:href="#path12_stroke" transform="translate(430.686 -917.719)" fill="#005588"/>
</g>
<g id="Vector">
<use xlink:href="#path13_fill" transform="translate(429 -885.808)" fill="#FAAC2B"/>
</g>
<g id="Vector">
<use xlink:href="#path14_stroke" transform="translate(429 -885.808)" fill="#005588"/>
</g>
<g id="Vector">
<use xlink:href="#path15_fill" transform="translate(516.683 -885.808)" fill="#FAAC2B"/>
</g>
<g id="Vector">
<use xlink:href="#path16_stroke" transform="translate(516.683 -885.808)" fill="#005588"/>
</g>
<g id="Vector">
<use xlink:href="#path17_fill" transform="translate(433.288 -934.289)" fill="#FAAC2B"/>
</g>
<g id="Vector">
<use xlink:href="#path18_fill" transform="translate(431.62 -936)" fill="#025588"/>
</g>
<g id="Vector">
<use xlink:href="#path19_fill" transform="translate(434.44 -908.069)" fill="#065588"/>
</g>
<g id="Vector">
<use xlink:href="#path20_fill" transform="translate(436.369 -904.23)" fill="#065588"/>
</g>
<g id="Vector">
<use xlink:href="#path21_fill" transform="translate(457.868 -911.364)" fill="#065588"/>
</g>
<g id="Vector">
<use xlink:href="#path22_fill" transform="translate(467.797 -913.039)" fill="#065588"/>
</g>
<g id="Vector">
<use xlink:href="#path23_fill" transform="translate(486.488 -911.697)" fill="#065588"/>
</g>
<g id="Vector">
<use xlink:href="#path24_fill" transform="translate(442.797 -904.759)" fill="#2D94D1"/>
</g>
<g id="Vector">
<use xlink:href="#path25_fill" transform="translate(449.478 -891.237)" fill="#CFECFB"/>
</g>
<g id="Vector">
<use xlink:href="#path26_fill" transform="translate(436.369 -912.763)" fill="#065588"/>
</g>
<g id="Vector">
<use xlink:href="#path27_fill" transform="translate(436.369 -907.426)" fill="#065588"/>
</g>
<g id="Vector">
<use xlink:href="#path28_fill" transform="translate(466.415 -833.277)" fill="#025588"/>
</g>
<g id="Vector">
<use xlink:href="#path29_stroke" transform="translate(466.415 -833.277)" fill="#005588"/>
</g>
<g id="Vector">
<use xlink:href="#path30_fill" transform="translate(435.889 -890.258)" fill="#FAAC27"/>
</g>
<g id="Vector">
<use xlink:href="#path31_fill" transform="translate(455.008 -898.098)" fill="#CFECFB"/>
</g>
<g id="Vector">
<use xlink:href="#path32_fill" transform="translate(473.749 -828.885)" fill="#025588"/>
</g>
<g id="Vector">
<use xlink:href="#path33_fill" transform="translate(450.847 -883.866)" fill="#CFECFB"/>
</g>
<g id="Vector">
<use xlink:href="#path34_fill" transform="translate(435.595 -879.173)" fill="#FAAC28"/>
</g>
<g id="Vector">
<use xlink:href="#path35_stroke" transform="translate(435.595 -879.173)" fill="#025588"/>
</g>
<g id="Vector">
<use xlink:href="#path36_fill" transform="translate(506.163 -890.206)" fill="#FAAC27"/>
</g>
<g id="Vector">
<use xlink:href="#path37_fill" transform="translate(509.938 -879.121)" fill="#FAAC28"/>
</g>
<g id="Vector">
<use xlink:href="#path38_stroke" transform="translate(509.938 -879.121)" fill="#025588"/>
</g>
</g>
</g>
<defs>
<path id="path0_fill" d="M 4.76503 12.519C 10.002 16.886 16.223 19.91 22.851 21.378C 22.552 20.716 22.404 19.985 22.432 19.228L 22.514 16.99C 22.577 15.292 23.499 13.801 24.832 12.953C 15.523 11.428 7.00004 7.01501 0.314036 0.146007C 0.267036 0.0970073 0.222035 0.047996 0.176035 -4.02832e-06L 0.154036 0.148998C -0.553964 4.819 1.21203 9.55799 4.76503 12.519Z"/>
<path id="path1_fill" d="M 8.39738 14.564L 3.54338 14.309C 1.68738 14.309 0.155381 16.113 0.084381 18.014L 0.00238028 20.253C -0.0306197 21.153 0.280381 22.002 0.876381 22.646C 0.903381 22.673 0.93238 22.699 0.96038 22.725C 3.18738 24.08 5.90338 23.557 8.42138 23.557C 19.0444 23.557 29.4374 19.721 37.2734 12.676C 40.6854 9.61101 42.0934 4.845 41.4044 0.305996L 41.3594 -3.78418e-06C 41.0134 0.376996 40.6684 0.750992 40.3104 1.11799C 31.8944 9.76199 20.5724 14.522 8.42838 14.522L 8.42238 14.522L 8.42238 14.561L 8.39838 14.561L 8.39838 14.564L 8.39738 14.564Z"/>
<path id="path2_fill" d="M 24.5225 22.95C 17.8945 21.478 11.6735 18.458 6.43647 14.091C 2.88347 11.13 1.11747 6.389 1.82547 1.721L 1.84747 1.572C 1.34947 1.057 0.866473 0.531996 0.396473 -4.27246e-06L 0.172474 1.473C -0.622526 6.715 1.36847 12.043 5.36747 15.377C 11.3835 20.394 18.6505 23.701 26.3555 25.013C 25.9905 24.795 25.6515 24.526 25.3505 24.203C 25.0035 23.829 24.7285 23.404 24.5225 22.95Z"/>
<path id="path3_fill" d="M 40.397 1.659L 40.444 1.967C 41.132 6.505 39.507 11.046 36.095 14.113C 28.259 21.158 18.093 25.037 7.469 25.037C 4.951 25.037 2.452 24.815 -3.60107e-06 24.386C 0.595996 24.984 1.383 25.314 2.233 25.314L 7.078 25.314L 7.078 26.005L 7.078 26.694L 6.439 26.694C 6.781 26.703 7.125 26.709 7.467 26.709C 18.504 26.709 29.068 22.678 37.209 15.356C 41.041 11.911 42.868 6.811 42.092 1.715L 41.832 7.44629e-06C 41.371 0.563007 40.892 1.116 40.397 1.659Z"/>
<path id="path4_fill" d="M 15.798 17.209L 18.249 17.209C 20.136 17.209 21.671 15.674 21.671 13.787L 21.671 3.924C 21.671 2.037 20.136 0.502001 18.249 0.502001L 12.395 0.502001C 10.508 0.502001 8.971 2.037 8.971 3.924C 8.971 4.293 8.674 4.592 8.303 4.592C 7.934 4.592 7.635 4.293 7.635 3.924C 7.635 2.297 8.457 0.859002 9.706 1.67847e-06L 3.41797e-06 1.67847e-06C 5.669 4.786 11.461 10.391 15.798 17.209ZM 15.824 4.121C 16.839 4.121 17.661 4.944 17.661 5.959C 17.661 6.974 16.839 7.796 15.824 7.796C 14.807 7.796 13.987 6.974 13.987 5.959C 13.987 4.944 14.807 4.121 15.824 4.121ZM 15.824 9.458C 16.839 9.458 17.661 10.28 17.661 11.295C 17.661 12.31 16.839 13.132 15.824 13.132C 14.807 13.132 13.987 12.31 13.987 11.295C 13.987 10.28 14.807 9.458 15.824 9.458Z"/>
<path id="path5_stroke" d="M 15.798 17.209L 15.3761 17.4774L 15.5235 17.709L 15.798 17.709L 15.798 17.209ZM 9.706 1.67847e-06L 9.98933 0.411975L 11.3154 -0.499998L 9.706 -0.499998L 9.706 1.67847e-06ZM 3.41797e-06 1.67847e-06L 3.41797e-06 -0.499998L -1.36733 -0.499998L -0.322542 0.382055L 3.41797e-06 1.67847e-06ZM 15.798 17.709L 18.249 17.709L 18.249 16.709L 15.798 16.709L 15.798 17.709ZM 18.249 17.709C 20.4121 17.709 22.171 15.9501 22.171 13.787L 21.171 13.787C 21.171 15.3979 19.8599 16.709 18.249 16.709L 18.249 17.709ZM 22.171 13.787L 22.171 3.924L 21.171 3.924L 21.171 13.787L 22.171 13.787ZM 22.171 3.924C 22.171 1.76086 20.4121 0.00200057 18.249 0.00200057L 18.249 1.002C 19.8599 1.002 21.171 2.31314 21.171 3.924L 22.171 3.924ZM 18.249 0.00200057L 12.395 0.00200057L 12.395 1.002L 18.249 1.002L 18.249 0.00200057ZM 12.395 0.00200057C 10.2322 0.00200057 8.471 1.76048 8.471 3.924L 9.471 3.924C 9.471 2.31352 10.7838 1.002 12.395 1.002L 12.395 0.00200057ZM 8.471 3.924C 8.471 4.01784 8.39688 4.092 8.303 4.092L 8.303 5.092C 8.95112 5.092 9.471 4.56817 9.471 3.924L 8.471 3.924ZM 8.303 4.092C 8.21014 4.092 8.135 4.01686 8.135 3.924L 7.135 3.924C 7.135 4.56914 7.65786 5.092 8.303 5.092L 8.303 4.092ZM 8.135 3.924C 8.135 2.46953 8.86932 1.18226 9.98933 0.411975L 9.42266 -0.411971C 8.04467 0.535741 7.135 2.12448 7.135 3.924L 8.135 3.924ZM 9.706 -0.499998L 3.41797e-06 -0.499998L 3.41797e-06 0.500002L 9.706 0.500002L 9.706 -0.499998ZM -0.322542 0.382055C 5.33369 5.15689 11.0735 10.707 15.3761 17.4774L 16.2199 16.9406C 11.8485 10.075 6.00432 4.41511 0.322548 -0.382052L -0.322542 0.382055ZM 15.824 4.621C 16.5625 4.621 17.161 5.21979 17.161 5.959L 18.161 5.959C 18.161 4.66821 17.1155 3.621 15.824 3.621L 15.824 4.621ZM 17.161 5.959C 17.161 6.69786 16.5629 7.296 15.824 7.296L 15.824 8.296C 17.1151 8.296 18.161 7.25014 18.161 5.959L 17.161 5.959ZM 15.824 7.296C 15.0835 7.296 14.487 6.69822 14.487 5.959L 13.487 5.959C 13.487 7.24978 14.5305 8.296 15.824 8.296L 15.824 7.296ZM 14.487 5.959C 14.487 5.21943 15.0838 4.621 15.824 4.621L 15.824 3.621C 14.5301 3.621 13.487 4.66857 13.487 5.959L 14.487 5.959ZM 15.824 9.958C 16.5629 9.958 17.161 10.5561 17.161 11.295L 18.161 11.295C 18.161 10.0039 17.1151 8.958 15.824 8.958L 15.824 9.958ZM 17.161 11.295C 17.161 12.0339 16.5629 12.632 15.824 12.632L 15.824 13.632C 17.1151 13.632 18.161 12.5861 18.161 11.295L 17.161 11.295ZM 15.824 12.632C 15.0835 12.632 14.487 12.0342 14.487 11.295L 13.487 11.295C 13.487 12.5858 14.5305 13.632 15.824 13.632L 15.824 12.632ZM 14.487 11.295C 14.487 10.5558 15.0835 9.958 15.824 9.958L 15.824 8.958C 14.5305 8.958 13.487 10.0042 13.487 11.295L 14.487 11.295Z"/>
<path id="path6_fill" d="M -3.72314e-06 4.759C -3.72314e-06 5.128 0.299003 5.427 0.668003 5.427C 1.037 5.427 1.336 5.128 1.336 4.759C 1.336 2.872 2.871 1.337 4.758 1.337L 10.612 1.337C 12.501 1.337 14.034 2.872 14.034 4.759L 14.034 14.622C 14.034 16.509 12.501 18.044 10.612 18.044L 8.161 18.044C 8.439 18.485 8.714 18.931 8.98 19.381L 10.612 19.381C 13.236 19.381 15.372 17.246 15.372 14.622L 15.372 4.759C 15.372 2.135 13.236 -1.2207e-06 10.612 -1.2207e-06L 4.758 -1.2207e-06C 3.762 -1.2207e-06 2.836 0.310002 2.07 0.835002C 0.819003 1.695 -3.72314e-06 3.132 -3.72314e-06 4.759Z"/>
<path id="path7_fill" d="M 1.83699 3.675C 2.85199 3.675 3.674 2.853 3.674 1.838C 3.674 0.822998 2.85199 6.10352e-08 1.83699 6.10352e-08C 0.819993 6.10352e-08 2.92969e-06 0.822998 2.92969e-06 1.838C 2.92969e-06 2.852 0.819993 3.675 1.83699 3.675Z"/>
<path id="path8_fill" d="M 1.83699 3.674C 2.85199 3.674 3.674 2.852 3.674 1.837C 3.674 0.822004 2.85199 -1.95313e-06 1.83699 -1.95313e-06C 0.819993 -1.95313e-06 2.92969e-06 0.822004 2.92969e-06 1.837C 2.92969e-06 2.852 0.819993 3.674 1.83699 3.674Z"/>
<path id="path9_fill" d="M 14.035 3.924C 14.035 4.293 13.736 4.592 13.367 4.592C 12.997 4.592 12.699 4.293 12.699 3.924C 12.699 2.037 11.163 0.502001 9.276 0.502001L 3.422 0.502001C 1.536 0.502001 8.8501e-07 2.037 8.8501e-07 3.924L 8.8501e-07 13.787C 8.8501e-07 15.674 1.536 17.209 3.422 17.209L 6.655 17.209C 10.99 10.391 16.783 4.786 22.45 1.67847e-06L 11.963 1.67847e-06C 13.213 0.859002 14.035 2.297 14.035 3.924ZM 6.183 13.132C 5.168 13.132 4.346 12.31 4.346 11.295C 4.346 10.28 5.168 9.458 6.183 9.458C 7.198 9.458 8.02 10.28 8.02 11.295C 8.02 12.31 7.198 13.132 6.183 13.132ZM 6.183 7.796C 5.168 7.796 4.346 6.974 4.346 5.959C 4.346 4.944 5.168 4.121 6.183 4.121C 7.198 4.121 8.02 4.944 8.02 5.959C 8.02 6.973 7.198 7.796 6.183 7.796Z"/>
<path id="path10_stroke" d="M 6.655 17.209L 6.655 17.709L 6.9296 17.709L 7.07693 17.4773L 6.655 17.209ZM 22.45 1.67847e-06L 22.7726 0.381999L 23.817 -0.499998L 22.45 -0.499998L 22.45 1.67847e-06ZM 11.963 1.67847e-06L 11.963 -0.499998L 10.3526 -0.499998L 11.6798 0.41208L 11.963 1.67847e-06ZM 13.535 3.924C 13.535 4.01686 13.4599 4.092 13.367 4.092L 13.367 5.092C 14.0121 5.092 14.535 4.56914 14.535 3.924L 13.535 3.924ZM 13.367 4.092C 13.2736 4.092 13.199 4.01734 13.199 3.924L 12.199 3.924C 12.199 4.56866 12.7204 5.092 13.367 5.092L 13.367 4.092ZM 13.199 3.924C 13.199 1.76067 11.439 0.00200057 9.276 0.00200057L 9.276 1.002C 10.887 1.002 12.199 2.31333 12.199 3.924L 13.199 3.924ZM 9.276 0.00200057L 3.422 0.00200057L 3.422 1.002L 9.276 1.002L 9.276 0.00200057ZM 3.422 0.00200057C 1.25995 0.00200057 -0.499999 1.76076 -0.499999 3.924L 0.500001 3.924C 0.500001 2.31324 1.81205 1.002 3.422 1.002L 3.422 0.00200057ZM -0.499999 3.924L -0.499999 13.787L 0.500001 13.787L 0.500001 3.924L -0.499999 3.924ZM -0.499999 13.787C -0.499999 15.9502 1.25996 17.709 3.422 17.709L 3.422 16.709C 1.81205 16.709 0.500001 15.3978 0.500001 13.787L -0.499999 13.787ZM 3.422 17.709L 6.655 17.709L 6.655 16.709L 3.422 16.709L 3.422 17.709ZM 7.07693 17.4773C 11.3775 10.707 17.1183 5.15688 22.7726 0.381999L 22.1274 -0.381996C 16.4477 4.41512 10.6025 10.075 6.23306 16.9407L 7.07693 17.4773ZM 22.45 -0.499998L 11.963 -0.499998L 11.963 0.500002L 22.45 0.500002L 22.45 -0.499998ZM 11.6798 0.41208C 12.8007 1.18236 13.535 2.46956 13.535 3.924L 14.535 3.924C 14.535 2.12444 13.6253 0.535642 12.2462 -0.412077L 11.6798 0.41208ZM 6.183 12.632C 5.44414 12.632 4.846 12.0339 4.846 11.295L 3.846 11.295C 3.846 12.5861 4.89186 13.632 6.183 13.632L 6.183 12.632ZM 4.846 11.295C 4.846 10.5561 5.44414 9.958 6.183 9.958L 6.183 8.958C 4.89185 8.958 3.846 10.0039 3.846 11.295L 4.846 11.295ZM 6.183 9.958C 6.92186 9.958 7.52 10.5561 7.52 11.295L 8.52 11.295C 8.52 10.0039 7.47414 8.958 6.183 8.958L 6.183 9.958ZM 7.52 11.295C 7.52 12.0339 6.92186 12.632 6.183 12.632L 6.183 13.632C 7.47414 13.632 8.52 12.5861 8.52 11.295L 7.52 11.295ZM 6.183 7.296C 5.44414 7.296 4.846 6.69786 4.846 5.959L 3.846 5.959C 3.846 7.25014 4.89185 8.296 6.183 8.296L 6.183 7.296ZM 4.846 5.959C 4.846 5.21979 5.4445 4.621 6.183 4.621L 6.183 3.621C 4.8915 3.621 3.846 4.66821 3.846 5.959L 4.846 5.959ZM 6.183 4.621C 6.9215 4.621 7.52 5.21979 7.52 5.959L 8.52 5.959C 8.52 4.66821 7.47449 3.621 6.183 3.621L 6.183 4.621ZM 7.52 5.959C 7.52 6.69703 6.92168 7.296 6.183 7.296L 6.183 8.296C 7.47432 8.296 8.52 7.24896 8.52 5.959L 7.52 5.959Z"/>
<path id="path11_fill" d="M 4.759 18.044C 2.872 18.044 1.337 16.509 1.337 14.622L 1.337 4.759C 1.337 2.872 2.872 1.337 4.759 1.337L 10.613 1.337C 12.5 1.337 14.035 2.872 14.035 4.759C 14.035 5.128 14.334 5.427 14.703 5.427C 15.072 5.427 15.371 5.128 15.371 4.759C 15.371 3.132 14.55 1.694 13.3 0.835002C 12.535 0.310002 11.61 -1.2207e-06 10.613 -1.2207e-06L 4.759 -1.2207e-06C 2.135 -1.2207e-06 -9.15527e-07 2.135 -9.15527e-07 4.759L -9.15527e-07 14.622C -9.15527e-07 17.246 2.135 19.381 4.759 19.381L 7.171 19.381C 7.438 18.931 7.711 18.484 7.991 18.044L 4.759 18.044Z"/>
<path id="path12_stroke" d="M 13.3 0.835002L 13.5832 0.422923L 13.5829 0.422745L 13.3 0.835002ZM 7.171 19.381L 7.171 19.881L 7.45572 19.881L 7.60101 19.6361L 7.171 19.381ZM 7.991 18.044L 8.41283 18.3124L 8.90184 17.544L 7.991 17.544L 7.991 18.044ZM 4.759 17.544C 3.14814 17.544 1.837 16.2329 1.837 14.622L 0.837001 14.622C 0.837001 16.7851 2.59586 18.544 4.759 18.544L 4.759 17.544ZM 1.837 14.622L 1.837 4.759L 0.837001 4.759L 0.837001 14.622L 1.837 14.622ZM 1.837 4.759C 1.837 3.14814 3.14814 1.837 4.759 1.837L 4.759 0.837001C 2.59586 0.837001 0.837001 2.59586 0.837001 4.759L 1.837 4.759ZM 4.759 1.837L 10.613 1.837L 10.613 0.837001L 4.759 0.837001L 4.759 1.837ZM 10.613 1.837C 12.2239 1.837 13.535 3.14814 13.535 4.759L 14.535 4.759C 14.535 2.59586 12.7761 0.837001 10.613 0.837001L 10.613 1.837ZM 13.535 4.759C 13.535 5.40414 14.0579 5.927 14.703 5.927L 14.703 4.927C 14.6101 4.927 14.535 4.85186 14.535 4.759L 13.535 4.759ZM 14.703 5.927C 15.3481 5.927 15.871 5.40415 15.871 4.759L 14.871 4.759C 14.871 4.85186 14.7959 4.927 14.703 4.927L 14.703 5.927ZM 15.871 4.759C 15.871 2.95965 14.9625 1.37077 13.5832 0.422923L 13.0168 1.24708C 14.1375 2.01724 14.871 3.30435 14.871 4.759L 15.871 4.759ZM 13.5829 0.422745C 12.7581 -0.137487 11.6905 -0.49348 10.613 -0.500001L 10.613 0.499999C 11.5295 0.493477 12.3119 0.757491 13.0171 1.24726L 13.5829 0.422745ZM 10.613 -0.500001L 4.759 -0.500001L 4.759 0.499999L 10.613 0.499999L 10.613 -0.500001ZM 4.759 -0.500001C 1.85886 -0.500001 -0.500001 1.85886 -0.500001 4.759L 0.499999 4.759C 0.499999 2.41114 2.41114 0.499999 4.759 0.499999L 4.759 -0.500001ZM -0.500001 4.759L -0.500001 14.622L 0.499999 14.622L 0.499999 4.759L -0.500001 4.759ZM -0.500001 14.622C -0.500001 17.5221 1.85886 19.881 4.759 19.881L 4.759 18.881C 2.41114 18.881 0.499999 16.9699 0.499999 14.622L -0.500001 14.622ZM 4.759 19.881L 7.171 19.881L 7.171 18.881L 4.759 18.881L 4.759 19.881ZM 7.60101 19.6361C 7.86637 19.1889 8.13529 18.7485 8.41283 18.3124L 7.56917 17.7756C 7.28671 18.2195 7.00963 18.6731 6.74099 19.1259L 7.60101 19.6361ZM 7.991 17.544L 4.759 17.544L 4.759 18.544L 7.991 18.544L 7.991 17.544Z"/>
<path id="path13_fill" d="M 2.969 8.64C 3.05 5.6 3.439 2.725 4.077 1.89209e-06L 4.01 1.89209e-06C 1.804 1.89209e-06 -1.7395e-06 1.805 -1.7395e-06 4.01L -1.7395e-06 22.889C -1.7395e-06 25.094 1.804 26.9 4.01 26.9L 6.358 26.9C 3.968 21.205 2.798 15.015 2.969 8.64Z"/>
<path id="path14_stroke" d="M 2.969 8.64L 3.46882 8.65341L 3.46882 8.65332L 2.969 8.64ZM 4.077 1.89209e-06L 4.56384 0.113984L 4.70759 -0.499998L 4.077 -0.499998L 4.077 1.89209e-06ZM 6.358 26.9L 6.358 27.4L 7.11008 27.4L 6.81905 26.7065L 6.358 26.9ZM 3.46882 8.65332C 3.54838 5.64024 3.93072 2.81562 4.56384 0.113984L 3.59017 -0.11398C 2.94728 2.63439 2.55162 5.55976 2.46918 8.62668L 3.46882 8.65332ZM 4.077 -0.499998L 4.01 -0.499998L 4.01 0.500002L 4.077 0.500002L 4.077 -0.499998ZM 4.01 -0.499998C 1.52778 -0.499998 -0.500002 1.52893 -0.500002 4.01L 0.499998 4.01C 0.499998 2.08106 2.08022 0.500002 4.01 0.500002L 4.01 -0.499998ZM -0.500002 4.01L -0.500002 22.889L 0.499998 22.889L 0.499998 4.01L -0.500002 4.01ZM -0.500002 22.889C -0.500002 25.3699 1.52761 27.4 4.01 27.4L 4.01 26.4C 2.08039 26.4 0.499998 24.8181 0.499998 22.889L -0.500002 22.889ZM 4.01 27.4L 6.358 27.4L 6.358 26.4L 4.01 26.4L 4.01 27.4ZM 6.81905 26.7065C 4.44682 21.061 3.2964 14.975 3.46882 8.65341L 2.46918 8.62659C 2.2996 15.055 3.48918 21.349 5.89695 27.0935L 6.81905 26.7065Z"/>
<path id="path15_fill" d="M 2.35001 1.89209e-06L 2.282 1.89209e-06C 2.92 2.725 3.30901 5.6 3.39101 8.64C 3.56101 15.015 2.391 21.203 7.32422e-07 26.899L 2.35001 26.899C 4.55501 26.899 6.36 25.095 6.36 22.89L 6.36 4.01C 6.357 1.805 4.55501 1.89209e-06 2.35001 1.89209e-06Z"/>
<path id="path16_stroke" d="M 2.282 1.89209e-06L 2.282 -0.499998L 1.65141 -0.499998L 1.79516 0.113984L 2.282 1.89209e-06ZM 3.39101 8.64L 3.89083 8.62667L 3.89083 8.62652L 3.39101 8.64ZM 7.32422e-07 26.899L -0.461028 26.7055L -0.752148 27.399L 7.32422e-07 27.399L 7.32422e-07 26.899ZM 6.36 4.01L 6.86 4.01L 6.86 4.00932L 6.36 4.01ZM 2.35001 -0.499998L 2.282 -0.499998L 2.282 0.500002L 2.35001 0.500002L 2.35001 -0.499998ZM 1.79516 0.113984C 2.42828 2.81562 2.81064 5.64032 2.89119 8.65348L 3.89083 8.62652C 3.80738 5.55968 3.41172 2.63439 2.76883 -0.11398L 1.79516 0.113984ZM 2.89118 8.65333C 3.06261 14.975 1.91219 21.059 -0.461028 26.7055L 0.46103 27.0925C 2.86981 21.347 4.0594 15.055 3.89083 8.62667L 2.89118 8.65333ZM 7.32422e-07 27.399L 2.35001 27.399L 2.35001 26.399L 7.32422e-07 26.399L 7.32422e-07 27.399ZM 2.35001 27.399C 4.83099 27.399 6.86 25.3713 6.86 22.89L 5.86 22.89C 5.86 24.8187 4.27903 26.399 2.35001 26.399L 2.35001 27.399ZM 6.86 22.89L 6.86 4.01L 5.86 4.01L 5.86 22.89L 6.86 22.89ZM 6.86 4.00932C 6.85663 1.52932 4.83177 -0.499998 2.35001 -0.499998L 2.35001 0.500002C 4.27825 0.500002 5.85738 2.08067 5.86 4.01068L 6.86 4.00932Z"/>
<path id="path17_fill" d="M 73.4167 87.944C 81.4837 79.656 85.7587 68.725 85.4497 57.165C 85.1917 47.629 81.8497 38.967 75.2257 30.683C 69.4847 23.499 62.3177 17.848 55.9967 12.86C 49.9987 8.131 44.8177 4.046 42.8127 0.0320006C 42.7967 0.00100058 42.7397 -9.15527e-07 42.7317 -9.15527e-07C 42.7247 -9.15527e-07 42.6667 0.00100058 42.6497 0.0320006C 40.6447 4.046 35.4657 8.131 29.4687 12.86C 23.1447 17.848 15.9787 23.499 10.2367 30.683C 3.61466 38.967 0.270658 47.629 0.0156581 57.165C -0.293342 68.726 3.97966 79.656 12.0497 87.945C 20.1467 96.262 31.0437 100.842 42.7317 100.842C 54.4197 100.845 65.3167 96.265 73.4167 87.944ZM 61.0957 25.861C 60.9197 26.333 60.4747 26.625 59.9977 26.625C 59.8627 26.625 59.7267 26.602 59.5937 26.552C 57.8187 25.897 55.9717 25.34 54.0997 24.899C 53.4717 24.75 53.0817 24.121 53.2307 23.492C 53.3797 22.863 54.0097 22.475 54.6377 22.622C 56.6007 23.085 58.5407 23.669 60.4037 24.358C 61.0107 24.582 61.3197 25.255 61.0957 25.861ZM 50.8547 23.052C 50.7747 23.638 50.2727 24.063 49.6997 24.063C 49.6447 24.063 49.5927 24.059 49.5397 24.052C 45.0437 23.436 40.3317 23.435 35.8377 24.048C 35.1987 24.136 34.6067 23.688 34.5197 23.048C 34.4327 22.407 34.8807 21.818 35.5197 21.731C 40.2257 21.089 45.1517 21.089 49.8557 21.734C 50.4967 21.821 50.9427 22.411 50.8547 23.052ZM 29.9457 25.227C 28.6597 25.568 27.3807 25.967 26.1447 26.411C 26.0147 26.459 25.8807 26.481 25.7487 26.481C 25.2687 26.481 24.8197 26.184 24.6477 25.707C 24.4307 25.099 24.7457 24.429 25.3527 24.211C 26.6517 23.743 27.9957 23.325 29.3467 22.966C 29.9707 22.8 30.6097 23.172 30.7767 23.796C 30.9417 24.419 30.5707 25.061 29.9457 25.227ZM 2.45366 68.086C 1.60166 65.416 1.15066 62.615 1.15066 59.732C 1.15066 58.412 1.24466 57.112 1.42866 55.832C 3.82766 39.161 21.4037 26.22 42.7327 26.22C 64.0577 26.22 81.6347 39.161 84.0357 55.832C 84.2197 57.112 84.3107 58.412 84.3107 59.732C 84.3107 62.615 83.8597 65.416 83.0077 68.086C 78.4037 82.552 62.1167 93.244 42.7327 93.244C 23.3457 93.244 7.05866 82.552 2.45366 68.086Z"/>
<path id="path18_fill" d="M 88.7862 58.837C 88.7062 55.795 88.3162 52.918 87.6792 50.191C 86.6042 45.602 84.8152 41.443 82.5662 37.65C 82.2982 37.2 82.0252 36.754 81.7462 36.313C 77.4092 29.489 71.6172 23.88 65.9492 19.091C 63.4652 16.991 61.0042 15.048 58.7002 13.23C 52.8612 8.621 47.8172 4.64 45.9782 0.957001C 45.6842 0.367001 45.0802 5.49316e-07 44.4032 5.49316e-07C 43.7252 5.49316e-07 43.1212 0.367001 42.8262 0.957001C 40.9882 4.64 35.9452 8.621 30.1052 13.23C 27.8012 15.048 25.3402 16.991 22.8552 19.091C 17.1882 23.88 11.3952 29.489 7.0602 36.313C 6.7802 36.754 6.5062 37.2 6.2402 37.65C 3.9902 41.443 2.20021 45.602 1.12521 50.191C 0.487207 52.918 0.098206 55.795 0.016206 58.837C -0.153794 65.218 1.01621 71.413 3.40621 77.11C 5.22521 81.453 7.75321 85.506 10.9342 89.131C 11.4042 89.665 11.8872 90.191 12.3852 90.706C 12.4312 90.755 12.4762 90.803 12.5232 90.851C 19.2092 97.724 27.7322 102.142 37.0412 103.667C 37.7792 103.196 38.6392 102.922 39.5522 102.922L 44.3972 102.922L 44.3972 104.265L 44.4032 104.265C 56.5452 104.265 67.8662 99.502 76.2832 90.851C 76.6402 90.484 76.9882 90.109 77.3302 89.732C 77.8252 89.189 78.3072 88.635 78.7692 88.072C 81.5302 84.72 83.7532 81.036 85.4002 77.111C 87.7862 71.413 88.9582 65.218 88.7862 58.837ZM 13.7182 89.656C 5.64921 81.368 1.3752 70.436 1.6852 58.876C 1.9402 49.34 5.28321 40.677 11.9062 32.393C 17.6482 25.21 24.8142 19.558 31.1372 14.571C 37.1342 9.842 42.3142 5.757 44.3192 1.743C 44.3352 1.712 44.3942 1.711 44.4012 1.711C 44.4072 1.711 44.4652 1.712 44.4822 1.743C 46.4872 5.757 51.6672 9.842 57.6632 14.571C 63.9872 19.558 71.1542 25.21 76.8952 32.393C 83.5182 40.677 86.8612 49.34 87.1162 58.876C 87.4272 70.437 83.1532 81.368 75.0832 89.655C 66.9862 97.973 56.0892 102.552 44.4012 102.552C 32.7122 102.554 21.8162 97.974 13.7182 89.656Z"/>
<path id="path19_fill" d="M 83.288 29.612C 80.877 12.941 63.216 3.05176e-07 41.785 3.05176e-07C 20.35 3.05176e-07 2.689 12.941 0.278001 29.612C 0.0940006 30.892 7.01904e-07 32.192 7.01904e-07 33.511C 7.01904e-07 36.395 0.452999 39.196 1.309 41.866C 5.936 56.331 22.303 67.023 41.786 67.023C 61.265 67.023 77.632 56.331 82.259 41.866C 83.113 39.195 83.569 36.394 83.569 33.511C 83.565 32.193 83.474 30.892 83.288 29.612Z"/>
<path id="path20_fill" d="M 78.369 26.221C 76.098 11.459 59.479 -2.80762e-06 39.316 -2.80762e-06C 19.149 -2.80762e-06 2.53 11.459 0.261999 26.221C 0.0879988 27.354 1.5564e-06 28.505 1.5564e-06 29.673C 1.5564e-06 32.227 0.427 34.706 1.232 37.071C 5.586 49.878 20.985 59.345 39.315 59.345C 57.643 59.345 73.043 49.877 77.396 37.071C 78.203 34.706 78.628 32.227 78.628 29.673C 78.628 28.505 78.543 27.354 78.369 26.221Z"/>
<path id="path21_fill" d="M 4.76708 0.0395382C 3.41608 0.398538 2.07308 0.816533 0.774082 1.28453C 0.166082 1.50253 -0.14892 2.17254 0.06908 2.78054C 0.24108 3.25754 0.690078 3.55454 1.16908 3.55454C 1.30108 3.55454 1.43508 3.53254 1.56608 3.48454C 2.80108 3.04054 4.08008 2.64253 5.36708 2.30053C 5.99208 2.13453 6.36308 1.49353 6.19808 0.869532C 6.03108 0.245532 5.39108 -0.126462 4.76708 0.0395382Z"/>
<path id="path22_fill" d="M 1.01103 0.481003C 0.371035 0.569003 -0.0769652 1.158 0.0110348 1.798C 0.0980348 2.438 0.690036 2.886 1.32804 2.798C 5.82304 2.185 10.535 2.186 15.031 2.802C 15.084 2.809 15.137 2.813 15.191 2.813C 15.765 2.813 16.267 2.388 16.347 1.802C 16.435 1.162 15.988 0.572001 15.347 0.485001C 10.643 -0.160999 5.71603 -0.160997 1.01103 0.481003Z"/>
<path id="path23_fill" d="M 1.43779 0.0311023C 0.809787 -0.115898 0.176789 0.272105 0.0317887 0.901105C -0.117211 1.5301 0.271792 2.1591 0.900792 2.3071C 2.77179 2.7491 4.61979 3.3051 6.39379 3.9611C 6.52779 4.0101 6.66479 4.0341 6.79779 4.0341C 7.27479 4.0341 7.71979 3.7421 7.89579 3.2701C 8.12079 2.6641 7.81079 1.9911 7.20479 1.7671C 5.34179 1.0771 3.40179 0.493102 1.43779 0.0311023Z"/>
<path id="path24_fill" d="M 33.5118 58.378C 48.8028 58.266 61.8588 51.351 65.7828 38.611C 66.6128 35.93 67.0468 33.102 67.0248 30.183C 67.0128 28.85 66.9118 27.541 66.7158 26.256C 64.4858 11.32 50.3248 -0.124972 33.2858 0.00102766C 16.2458 0.127028 2.2598 11.78 0.248798 26.747C 0.0747982 28.035 -0.00920293 29.346 0.000797072 30.679C 0.0217971 33.598 0.497797 36.419 1.3618 39.086C 5.4768 51.768 18.2218 58.49 33.5118 58.378ZM 60.7598 41.312C 59.5248 41.795 58.1288 41.187 57.6438 39.952C 57.1618 38.714 57.7688 37.319 59.0058 36.835C 60.2428 36.352 61.6378 36.96 62.1218 38.196C 62.6088 39.432 61.9968 40.826 60.7598 41.312ZM 63.6558 23.074C 63.8368 23.741 63.4638 24.434 62.8108 24.665C 62.1188 24.911 61.3448 24.552 61.1108 23.853C 57.3968 12.875 45.3448 5.01203 31.1468 4.95803C 30.5748 4.95603 30.1128 4.48503 30.1128 3.91103C 30.1128 3.35503 30.5468 2.89403 31.1028 2.86403C 31.1968 2.85903 31.2898 2.85403 31.3808 2.85003C 46.9838 2.15103 60.3798 10.891 63.6558 23.074ZM 15.4758 6.70303C 17.5998 6.38503 19.5808 7.84903 19.8988 9.97303C 20.2168 12.097 18.7538 14.077 16.6298 14.396C 14.5048 14.714 12.5248 13.25 12.2068 11.126C 11.8878 9.00203 13.3518 7.02203 15.4758 6.70303ZM 11.4168 15.571C 11.6138 16.884 10.7088 18.109 9.3948 18.306C 8.0818 18.502 6.8568 17.598 6.6608 16.285C 6.4628 14.971 7.3688 13.746 8.6818 13.549C 9.9958 13.352 11.2198 14.257 11.4168 15.571ZM 15.1508 40.848C 14.9808 40.793 14.8118 40.737 14.6448 40.672C 13.8358 40.367 13.0758 39.965 12.3788 39.479C 12.2498 39.388 12.1228 39.294 11.9978 39.2C 11.7878 39.038 11.5838 38.87 11.3878 38.694C 11.2368 38.557 11.0898 38.417 10.9478 38.272C 10.7938 38.116 10.6448 37.954 10.5018 37.788C 10.3608 37.626 10.2248 37.46 10.0938 37.288C 9.3788 36.35 8.8188 35.284 8.4608 34.129C 8.3978 33.928 8.3438 33.724 8.2948 33.519C 8.1928 33.1 8.1158 32.672 8.0678 32.235C 8.0438 32.014 8.0248 31.791 8.0138 31.567C 8.0068 31.41 8.0028 31.252 8.0028 31.094C 8.0028 30.813 8.0168 30.536 8.0398 30.261C 8.0578 30.029 8.0828 29.797 8.1158 29.57C 8.1788 29.15 8.2688 28.74 8.3808 28.339C 8.4218 28.194 8.4638 28.049 8.5108 27.907C 8.6058 27.62 8.7118 27.336 8.8298 27.061C 8.8708 26.966 8.9138 26.873 8.9568 26.781C 10.0888 24.35 12.1458 22.439 14.6768 21.501C 14.8968 21.419 15.1208 21.347 15.3468 21.281C 15.7658 21.158 16.1958 21.059 16.6338 20.991C 16.6548 20.988 16.6738 20.984 16.6938 20.981C 17.1948 20.906 17.7088 20.866 18.2298 20.866C 18.8848 20.866 19.6008 21.005 20.3538 21.248C 20.5648 21.317 20.7778 21.393 20.9948 21.477C 22.0188 21.874 23.0968 22.443 24.1778 23.107C 24.3658 23.223 24.5528 23.341 24.7418 23.462C 24.9618 23.604 25.1818 23.749 25.4008 23.898C 25.5708 24.012 25.7408 24.129 25.9098 24.247C 27.2258 25.168 28.5008 26.173 29.6338 27.122C 30.0508 27.473 30.5128 27.74 30.9968 27.932C 31.2198 28.021 31.4468 28.094 31.6778 28.15C 32.1398 28.26 32.6148 28.303 33.0848 28.281C 33.2168 28.274 33.3488 28.262 33.4808 28.245C 33.9548 28.184 34.4208 28.057 34.8668 27.859C 34.9488 27.823 35.0288 27.782 35.1088 27.741C 35.3728 27.606 35.6278 27.446 35.8688 27.261C 35.9288 27.215 35.9918 27.172 36.0498 27.122C 36.1558 27.034 36.2628 26.945 36.3708 26.855C 36.5408 26.714 36.7138 26.573 36.8898 26.431C 37.0608 26.292 37.2368 26.153 37.4118 26.013C 37.6408 25.829 37.8778 25.647 38.1148 25.464C 38.1738 25.419 38.2338 25.374 38.2928 25.328C 39.3728 24.509 40.5078 23.713 41.6398 23.026C 41.7538 22.956 41.8678 22.889 41.9808 22.823C 42.1848 22.702 42.3898 22.584 42.5938 22.471C 42.7648 22.377 42.9358 22.287 43.1058 22.2C 43.8948 21.791 44.6698 21.455 45.4088 21.224C 45.5968 21.163 45.7858 21.112 45.9708 21.066C 46.4908 20.938 46.9888 20.866 47.4548 20.866C 48.1188 20.866 48.7668 20.931 49.3968 21.053C 49.5758 21.087 49.7528 21.125 49.9268 21.169C 50.7228 21.367 51.4818 21.659 52.1908 22.03C 52.3978 22.138 52.5998 22.251 52.7968 22.373C 53.0458 22.525 53.2858 22.688 53.5178 22.86C 53.5868 22.91 53.6538 22.962 53.7198 23.014C 54.4188 23.556 55.0448 24.186 55.5808 24.888C 55.6158 24.935 55.6528 24.982 55.6868 25.03C 55.8678 25.274 56.0378 25.525 56.1958 25.785C 56.3208 25.99 56.4338 26.201 56.5468 26.414C 56.9128 27.124 57.1978 27.882 57.3908 28.677C 57.4468 28.903 57.4938 29.131 57.5328 29.363C 57.6148 29.839 57.6618 30.328 57.6748 30.825C 57.6758 30.843 57.6758 30.861 57.6768 30.879C 57.6778 30.951 57.6818 31.022 57.6818 31.094C 57.6818 31.629 57.6408 32.156 57.5608 32.669C 57.5398 32.826 57.5088 32.981 57.4778 33.134C 57.3798 33.623 57.2468 34.099 57.0808 34.56C 57.0498 34.647 57.0158 34.732 56.9798 34.817C 56.8898 35.048 56.7938 35.276 56.6878 35.497C 56.5858 35.711 56.4738 35.92 56.3598 36.124C 55.3228 37.956 53.7388 39.436 51.8268 40.341C 51.6138 40.445 51.3938 40.534 51.1758 40.62C 50.4048 40.923 49.5868 41.133 48.7378 41.239C 48.6328 41.252 48.5228 41.263 48.4178 41.276C 48.1018 41.303 47.7808 41.321 47.4588 41.321C 47.3198 41.321 47.1798 41.312 47.0368 41.3C 46.8518 41.285 46.6678 41.262 46.4748 41.229C 45.7418 41.1 44.9528 40.837 44.1358 40.48C 43.9538 40.401 43.7728 40.317 43.5898 40.228C 43.4088 40.141 43.2258 40.049 43.0438 39.954C 42.8678 39.864 42.6938 39.769 42.5168 39.672C 41.4488 39.077 40.3588 38.362 39.3038 37.605C 39.1518 37.496 38.9988 37.383 38.8458 37.272C 38.6578 37.131 38.4688 36.992 38.2838 36.848C 38.1288 36.731 37.9718 36.613 37.8208 36.494C 37.6198 36.338 37.4218 36.181 37.2228 36.024C 37.0628 35.896 36.9068 35.769 36.7498 35.641C 36.5408 35.473 36.3388 35.305 36.1388 35.138C 36.1118 35.115 36.0818 35.09 36.0528 35.067C 35.9488 34.979 35.8408 34.898 35.7298 34.82C 35.0938 34.369 34.3798 34.084 33.6428 33.965C 33.3958 33.925 33.1468 33.904 32.8968 33.901C 32.4008 33.896 31.9028 33.967 31.4208 34.111C 31.3698 34.126 31.3178 34.142 31.2658 34.159C 31.0328 34.237 30.8028 34.334 30.5798 34.449C 30.3738 34.554 30.1718 34.67 29.9778 34.806C 29.8618 34.888 29.7488 34.974 29.6378 35.067C 29.5288 35.159 29.4178 35.25 29.3048 35.343C 29.2568 35.384 29.2058 35.426 29.1548 35.467C 27.8658 36.527 26.4228 37.63 24.9578 38.589C 24.7708 38.712 24.5838 38.831 24.3968 38.948C 24.2068 39.067 24.0148 39.184 23.8248 39.298C 23.6428 39.407 23.4618 39.511 23.2808 39.612C 22.5038 40.05 21.7358 40.424 20.9968 40.713C 20.8558 40.769 20.7158 40.821 20.5778 40.868C 20.2798 40.972 19.9878 41.056 19.7028 41.127C 19.6598 41.138 19.6168 41.148 19.5738 41.159C 19.1058 41.263 18.6578 41.323 18.2338 41.323C 18.1968 41.323 18.1588 41.321 18.1208 41.321C 17.9498 41.319 17.7798 41.312 17.6108 41.301C 16.7558 41.246 15.9328 41.094 15.1508 40.848Z"/>
<path id="path25_fill" d="M 0.0269298 2.76193C 0.22393 4.07493 1.44793 4.97993 2.76093 4.78293C 4.07493 4.58593 4.97993 3.36193 4.78293 2.04793C 4.58693 0.734928 3.36193 -0.170068 2.04793 0.0269319C 0.734934 0.223932 -0.17007 1.44893 0.0269298 2.76193Z"/>
<path id="path26_fill" d="M 1.837 6.10352e-08C 0.822 6.10352e-08 1.5564e-06 0.822998 1.5564e-06 1.838C 1.5564e-06 2.853 0.822 3.675 1.837 3.675C 2.852 3.675 3.674 2.853 3.674 1.838C 3.674 0.822998 2.852 6.10352e-08 1.837 6.10352e-08Z"/>
<path id="path27_fill" d="M 1.837 -1.95313e-06C 0.822 -1.95313e-06 1.5564e-06 0.822004 1.5564e-06 1.837C 1.5564e-06 2.852 0.822 3.674 1.837 3.674C 2.852 3.674 3.674 2.852 3.674 1.837C 3.674 0.822004 2.852 -1.95313e-06 1.837 -1.95313e-06Z"/>
<path id="path28_fill" d="M 9.37684 11.164L 9.37684 10.522L 4.53084 10.473C 3.68184 10.473 2.89484 10.143 2.29784 9.545C 2.27084 9.518 2.24184 9.491 2.21584 9.465C 1.61784 8.821 1.30784 7.97401 1.34084 7.07201L 1.42284 4.834C 1.49284 2.93 3.02484 1.129 4.88184 1.129L 9.73484 1.383L 9.76084 1.383L 9.76084 1.342L 9.76084 1.2207e-07L 4.91584 1.2207e-07C 4.00284 1.2207e-07 3.14284 0.273005 2.40584 0.742005C 1.07284 1.592 0.14884 3.084 0.0868401 4.78L 0.00483942 7.019C -0.0231606 7.777 0.0668389 8.552 0.366839 9.214C 0.572839 9.669 0.83684 10.1 1.18384 10.473C 1.48284 10.794 1.85584 11.059 2.22084 11.276C 2.90084 11.682 3.71484 11.853 4.53084 11.853L 8.73684 11.853L 9.37784 11.853L 9.37784 11.164L 9.37684 11.164Z"/>
<path id="path29_stroke" d="M 9.37684 11.164L 9.21184 11.164L 9.21184 11.329L 9.37684 11.329L 9.37684 11.164ZM 9.37684 10.522L 9.54184 10.522L 9.54184 10.3587L 9.37851 10.357L 9.37684 10.522ZM 4.53084 10.473L 4.53251 10.308L 4.53084 10.308L 4.53084 10.473ZM 2.29784 9.545L 2.41461 9.42842L 2.41451 9.42833L 2.29784 9.545ZM 2.21584 9.465L 2.09484 9.57735L 2.09917 9.58167L 2.21584 9.465ZM 1.34084 7.07201L 1.17595 7.06596L 1.17595 7.06597L 1.34084 7.07201ZM 1.42284 4.834L 1.25795 4.82794L 1.25795 4.82796L 1.42284 4.834ZM 4.88184 1.129L 4.89047 0.963998L 4.88184 0.963998L 4.88184 1.129ZM 9.73484 1.383L 9.72621 1.548L 9.73484 1.548L 9.73484 1.383ZM 9.76084 1.383L 9.76084 1.548L 9.92584 1.548L 9.92584 1.383L 9.76084 1.383ZM 9.76084 1.2207e-07L 9.92584 1.2207e-07L 9.92584 -0.165L 9.76084 -0.165L 9.76084 1.2207e-07ZM 2.40584 0.742005L 2.31726 0.6028L 2.31713 0.602882L 2.40584 0.742005ZM 0.0868401 4.78L 0.25173 4.78604L 0.25173 4.78603L 0.0868401 4.78ZM 0.00483942 7.019L 0.169727 7.02509L 0.169729 7.02504L 0.00483942 7.019ZM 0.366839 9.214L 0.517151 9.14595L 0.517127 9.1459L 0.366839 9.214ZM 1.18384 10.473L 1.06303 10.5854L 1.0631 10.5855L 1.18384 10.473ZM 2.22084 11.276L 2.30543 11.1343L 2.30516 11.1342L 2.22084 11.276ZM 9.37784 11.853L 9.37784 12.018L 9.54284 12.018L 9.54284 11.853L 9.37784 11.853ZM 9.37784 11.164L 9.54284 11.164L 9.54284 10.999L 9.37784 10.999L 9.37784 11.164ZM 9.54184 11.164L 9.54184 10.522L 9.21184 10.522L 9.21184 11.164L 9.54184 11.164ZM 9.37851 10.357L 4.53251 10.308L 4.52917 10.638L 9.37517 10.687L 9.37851 10.357ZM 4.53084 10.308C 3.72603 10.308 2.98092 9.99569 2.41461 9.42842L 2.18107 9.66157C 2.80875 10.2903 3.63766 10.638 4.53084 10.638L 4.53084 10.308ZM 2.41451 9.42833C 2.38541 9.39926 2.35641 9.37226 2.33251 9.34832L 2.09917 9.58167C 2.12727 9.60973 2.15627 9.63673 2.18117 9.66167L 2.41451 9.42833ZM 2.33675 9.35272C 1.76936 8.74168 1.47428 7.9376 1.50573 7.07804L 1.17595 7.06597C 1.1414 8.01042 1.46632 8.90031 2.09493 9.57727L 2.33675 9.35272ZM 1.50573 7.07805L 1.58773 4.84004L 1.25795 4.82796L 1.17595 7.06596L 1.50573 7.07805ZM 1.58773 4.84006C 1.65525 3.00349 3.13347 1.294 4.88184 1.294L 4.88184 0.963998C 2.91621 0.963998 1.33043 2.85651 1.25795 4.82794L 1.58773 4.84006ZM 4.87321 1.29377L 9.72622 1.54777L 9.74347 1.21822L 4.89046 0.964223L 4.87321 1.29377ZM 9.73484 1.548L 9.76084 1.548L 9.76084 1.218L 9.73484 1.218L 9.73484 1.548ZM 9.92584 1.383L 9.92584 1.342L 9.59584 1.342L 9.59584 1.383L 9.92584 1.383ZM 9.92584 1.342L 9.92584 1.2207e-07L 9.59584 1.2207e-07L 9.59584 1.342L 9.92584 1.342ZM 9.76084 -0.165L 4.91584 -0.165L 4.91584 0.165L 9.76084 0.165L 9.76084 -0.165ZM 4.91584 -0.165C 3.97758 -0.163055 3.073 0.123514 2.31726 0.6028L 2.49442 0.881209C 3.21268 0.422495 4.0281 0.163055 4.91584 0.165L 4.91584 -0.165ZM 2.31713 0.602882C 0.94064 1.48061 -0.0139741 3.02119 -0.0780497 4.77397L 0.25173 4.78603C 0.311654 3.14681 1.20504 1.7034 2.49455 0.881127L 2.31713 0.602882ZM -0.0780493 4.77396L -0.16005 7.01296L 0.169729 7.02504L 0.25173 4.78604L -0.0780493 4.77396ZM -0.160048 7.01291C -0.188033 7.78349 -0.0921591 8.5961 0.216551 9.28211L 0.517127 9.1459C 0.225837 8.50791 0.141712 7.77051 0.169727 7.02509L -0.160048 7.01291ZM 0.216527 9.28206C 0.427049 9.74627 0.705431 10.1998 1.06303 10.5854L 1.30465 10.3606C 0.96825 10.0002 0.718628 9.59174 0.517151 9.14595L 0.216527 9.28206ZM 1.0631 10.5855C 1.37413 10.9181 1.76583 11.1973 2.13652 11.4178L 2.30516 11.1342C 1.94586 10.9207 1.59155 10.6699 1.30458 10.3605L 1.0631 10.5855ZM 2.13626 11.4177C 2.84077 11.8357 3.69779 12.0171 4.53084 12.018L 4.53084 11.688C 3.73189 11.6889 2.96092 11.5283 2.30543 11.1343L 2.13626 11.4177ZM 4.53084 12.018L 8.73684 12.018L 8.73684 11.688L 4.53084 11.688L 4.53084 12.018ZM 8.73684 12.018L 9.37784 12.018L 9.37784 11.688L 8.73684 11.688L 8.73684 12.018ZM 9.54284 11.853L 9.54284 11.164L 9.21284 11.164L 9.21284 11.853L 9.54284 11.853ZM 9.37784 10.999L 9.37684 10.999L 9.37684 11.329L 9.37784 11.329L 9.37784 10.999Z"/>
<path id="path30_fill" d="M 5.62123 16.098C 5.61423 14.958 5.67323 13.838 5.79323 12.738C 6.32423 7.83 8.07223 3.677 10.6842 -2.68555e-06C 5.21523 0.0679973 0.725225 5.878 0.0802252 13.772C 0.0242252 14.452 -0.00277668 15.143 0.000223325 15.846C 0.00722332 17.385 0.159224 18.873 0.437224 20.28C 1.71922 26.771 5.67923 31.536 10.3992 31.756C 8.68823 29.254 7.37223 26.393 6.55923 23.284C 5.96423 21.004 5.63723 18.592 5.62123 16.098Z"/>
<path id="path31_fill" d="M 0.0433902 4.46639C 0.36239 6.59039 2.34239 8.05439 4.46639 7.73639C 6.59039 7.41639 8.05439 5.43739 7.73539 3.31339C 7.41739 1.18939 5.43739 -0.274607 3.31339 0.0433935C 1.18939 0.362393 -0.27461 2.34239 0.0433902 4.46639Z"/>
<path id="path32_fill" d="M 1.836 3.675C 0.820001 3.675 2.62451e-06 2.854 2.62451e-06 1.838C 2.62451e-06 0.822996 0.821001 -1.58691e-06 1.836 -1.58691e-06C 2.851 -1.58691e-06 3.674 0.822996 3.674 1.838C 3.674 2.854 2.852 3.675 1.836 3.675Z"/>
<path id="path33_fill" d="M 7.148 19.981C 6.977 19.927 6.809 19.87 6.642 19.806C 5.833 19.502 5.073 19.099 4.376 18.613C 4.246 18.521 4.119 18.429 3.994 18.334C 3.785 18.172 3.581 18.004 3.384 17.828C 3.234 17.691 3.086 17.551 2.944 17.406C 2.79 17.25 2.642 17.087 2.499 16.922C 2.358 16.76 2.221 16.594 2.091 16.424C 1.375 15.484 0.816002 14.418 0.458002 13.262C 0.395002 13.062 0.341002 12.858 0.292002 12.652C 0.189002 12.234 0.112998 11.805 0.0639976 11.369C 0.0399976 11.147 0.0210038 10.924 0.0110038 10.7C 0.00400378 10.543 2.19727e-06 10.385 2.19727e-06 10.227C 2.19727e-06 9.947 0.0139977 9.669 0.0359977 9.394C 0.0539977 9.162 0.0790012 8.931 0.113001 8.703C 0.175001 8.284 0.266001 7.874 0.377001 7.472C 0.419001 7.327 0.460998 7.183 0.507998 7.041C 0.602998 6.753 0.707998 6.47 0.826998 6.194C 0.866998 6.099 0.909997 6.006 0.953997 5.914C 2.086 3.484 4.142 1.573 6.673 0.633998C 6.893 0.552998 7.118 0.479997 7.344 0.413997C 7.763 0.291997 8.192 0.193004 8.631 0.124004C 8.651 0.121004 8.67 0.118001 8.691 0.115001C 9.192 0.0390011 9.705 3.23486e-06 10.227 3.23486e-06C 10.882 3.23486e-06 11.598 0.138 12.35 0.381C 12.561 0.45 12.775 0.525996 12.991 0.609996C 14.015 1.008 15.094 1.576 16.174 2.241C 16.363 2.356 16.55 2.474 16.738 2.595C 16.959 2.738 17.178 2.882 17.398 3.031C 17.568 3.146 17.738 3.263 17.907 3.381C 19.222 4.301 20.498 5.306 21.63 6.255C 22.048 6.606 22.51 6.873 22.994 7.066C 23.216 7.155 23.443 7.228 23.675 7.283C 24.136 7.394 24.612 7.436 25.082 7.414C 25.213 7.407 25.346 7.395 25.478 7.378C 25.952 7.317 26.417 7.19 26.863 6.992C 26.945 6.956 27.025 6.915 27.105 6.874C 27.369 6.739 27.623 6.58 27.865 6.395C 27.925 6.348 27.986 6.305 28.046 6.255C 28.152 6.167 28.259 6.078 28.367 5.988C 28.538 5.847 28.71 5.707 28.885 5.565C 29.057 5.425 29.233 5.286 29.406 5.146C 29.636 4.963 29.874 4.78 30.111 4.597L 30.29 4.462C 31.369 3.643 32.504 2.847 33.636 2.159C 33.75 2.089 33.864 2.022 33.977 1.956C 34.182 1.835 34.386 1.717 34.59 1.605C 34.761 1.51 34.932 1.42 35.102 1.333C 35.891 0.924003 36.666 0.588998 37.405 0.356998C 37.593 0.296998 37.782 0.245001 37.967 0.199001C 38.488 0.0710007 38.986 3.23486e-06 39.452 3.23486e-06C 40.116 3.23486e-06 40.764 0.0650002 41.395 0.186C 41.573 0.22 41.749 0.257998 41.924 0.301998C 42.719 0.500998 43.479 0.791998 44.188 1.163C 44.395 1.271 44.596 1.385 44.794 1.506C 45.042 1.659 45.281 1.821 45.516 1.993C 45.584 2.044 45.651 2.095 45.716 2.147C 46.415 2.689 47.041 3.319 47.578 4.022C 47.613 4.069 47.65 4.116 47.685 4.163C 47.865 4.407 48.035 4.659 48.193 4.919C 48.318 5.123 48.433 5.334 48.544 5.547C 48.91 6.257 49.195 7.015 49.387 7.81C 49.444 8.036 49.491 8.264 49.53 8.496C 49.612 8.972 49.659 9.461 49.672 9.958C 49.673 9.976 49.673 9.995 49.674 10.013C 49.675 10.085 49.679 10.155 49.679 10.227C 49.679 10.763 49.637 11.289 49.558 11.802C 49.535 11.959 49.506 12.114 49.476 12.267C 49.377 12.756 49.244 13.232 49.078 13.693C 49.047 13.78 49.012 13.865 48.978 13.951C 48.887 14.181 48.791 14.409 48.685 14.63C 48.583 14.844 48.471 15.053 48.357 15.258C 47.32 17.09 45.736 18.57 43.824 19.475C 43.611 19.578 43.392 19.669 43.172 19.754C 42.401 20.057 41.584 20.266 40.734 20.373C 40.627 20.385 40.519 20.398 40.413 20.409C 40.096 20.437 39.777 20.455 39.454 20.455C 39.316 20.455 39.174 20.447 39.031 20.434C 38.847 20.418 38.662 20.395 38.469 20.364C 37.736 20.233 36.947 19.971 36.129 19.615C 35.948 19.535 35.767 19.451 35.583 19.362C 35.401 19.274 35.22 19.182 35.038 19.088C 34.862 18.998 34.686 18.903 34.511 18.806C 33.441 18.21 32.353 17.496 31.298 16.74C 31.146 16.63 30.991 16.517 30.84 16.407C 30.652 16.265 30.462 16.126 30.277 15.982C 30.123 15.865 29.966 15.747 29.816 15.628C 29.615 15.471 29.416 15.315 29.218 15.158C 29.058 15.031 28.902 14.902 28.744 14.775C 28.537 14.607 28.334 14.439 28.134 14.273C 28.107 14.249 28.077 14.225 28.048 14.201C 27.944 14.113 27.835 14.032 27.726 13.954C 27.089 13.503 26.375 13.218 25.637 13.099C 25.392 13.059 25.142 13.038 24.892 13.036C 24.396 13.03 23.898 13.102 23.416 13.245C 23.364 13.26 23.312 13.276 23.261 13.294C 23.028 13.372 22.797 13.468 22.575 13.583C 22.368 13.688 22.167 13.805 21.973 13.941C 21.857 14.022 21.743 14.109 21.632 14.201C 21.523 14.293 21.413 14.385 21.3 14.478C 21.251 14.519 21.2 14.56 21.15 14.601C 19.861 15.663 18.418 16.764 16.953 17.725C 16.765 17.846 16.579 17.965 16.391 18.083C 16.201 18.203 16.01 18.318 15.82 18.432C 15.638 18.541 15.457 18.645 15.275 18.748C 14.499 19.184 13.731 19.56 12.991 19.848C 12.85 19.904 12.711 19.955 12.572 20.003C 12.274 20.106 11.983 20.191 11.698 20.262C 11.654 20.272 11.611 20.283 11.569 20.293C 11.101 20.398 10.652 20.458 10.229 20.458C 10.191 20.458 10.154 20.456 10.116 20.455C 9.945 20.453 9.775 20.447 9.606 20.435C 8.753 20.383 7.93 20.228 7.148 19.981Z"/>
<path id="path34_fill" d="M 4.438 10.418L 2.765 10.418C 1.245 10.418 -5.18799e-07 9.174 -5.18799e-07 7.652L -5.18799e-07 2.765C -5.18799e-07 1.244 1.245 -3.60107e-06 2.765 -3.60107e-06L 4.438 -3.60107e-06C 5.959 -3.60107e-06 7.204 1.244 7.204 2.765L 7.204 7.652C 7.204 9.174 5.959 10.418 4.438 10.418Z"/>
<path id="path35_stroke" d="M 4.438 9.918L 2.765 9.918L 2.765 10.918L 4.438 10.918L 4.438 9.918ZM 2.765 9.918C 1.52114 9.918 0.499999 8.89786 0.499999 7.652L -0.500001 7.652C -0.500001 9.45014 0.968855 10.918 2.765 10.918L 2.765 9.918ZM 0.499999 7.652L 0.499999 2.765L -0.500001 2.765L -0.500001 7.652L 0.499999 7.652ZM 0.499999 2.765C 0.499999 1.52026 1.52103 0.499996 2.765 0.499996L 2.765 -0.500004C 0.968972 -0.500004 -0.500001 0.967745 -0.500001 2.765L 0.499999 2.765ZM 2.765 0.499996L 4.438 0.499996L 4.438 -0.500004L 2.765 -0.500004L 2.765 0.499996ZM 4.438 0.499996C 5.68309 0.499996 6.704 1.52038 6.704 2.765L 7.704 2.765C 7.704 0.967627 6.23491 -0.500004 4.438 -0.500004L 4.438 0.499996ZM 6.704 2.765L 6.704 7.652L 7.704 7.652L 7.704 2.765L 6.704 2.765ZM 6.704 7.652C 6.704 8.89774 5.68297 9.918 4.438 9.918L 4.438 10.918C 6.23503 10.918 7.704 9.45026 7.704 7.652L 6.704 7.652Z"/>
<path id="path36_fill" d="M 5.06401 16.098C 5.07101 14.958 5.012 13.838 4.893 12.738C 4.362 7.83 2.613 3.676 -3.54004e-06 -7.32422e-07C 5.47 0.0679993 9.959 5.878 10.604 13.772C 10.66 14.452 10.687 15.143 10.683 15.846C 10.675 17.385 10.524 18.873 10.245 20.28C 8.96201 26.771 5.003 31.536 0.284001 31.756C 1.993 29.254 3.309 26.393 4.124 23.284C 4.721 21.004 5.04701 18.592 5.06401 16.098Z"/>
<path id="path37_fill" d="M 2.767 10.418L 4.439 10.418C 5.96 10.418 7.20501 9.174 7.20501 7.652L 7.20501 2.765C 7.20501 1.244 5.961 -1.64795e-06 4.439 -1.64795e-06L 2.767 -1.64795e-06C 1.246 -1.64795e-06 -2.01416e-06 1.244 -2.01416e-06 2.765L -2.01416e-06 7.652C -2.01416e-06 9.174 1.244 10.418 2.767 10.418Z"/>
<path id="path38_stroke" d="M -2.01416e-06 7.652L 0.499998 7.652L -2.01416e-06 7.652ZM 2.767 10.918L 4.439 10.918L 4.439 9.918L 2.767 9.918L 2.767 10.918ZM 4.439 10.918C 6.23602 10.918 7.70501 9.45026 7.70501 7.652L 6.70501 7.652C 6.70501 8.89774 5.68398 9.918 4.439 9.918L 4.439 10.918ZM 7.70501 7.652L 7.70501 2.765L 6.70501 2.765L 6.70501 7.652L 7.70501 7.652ZM 7.70501 2.765C 7.70501 0.967736 6.23702 -0.500002 4.439 -0.500002L 4.439 0.499998C 5.68498 0.499998 6.70501 1.52026 6.70501 2.765L 7.70501 2.765ZM 4.439 -0.500002L 2.767 -0.500002L 2.767 0.499998L 4.439 0.499998L 4.439 -0.500002ZM 2.767 -0.500002C 0.970333 -0.500002 -0.500002 0.967384 -0.500002 2.765L 0.499998 2.765C 0.499998 1.52061 1.52167 0.499998 2.767 0.499998L 2.767 -0.500002ZM -0.500002 2.765L -0.500002 7.652L 0.499998 7.652L 0.499998 2.765L -0.500002 2.765ZM -0.500002 7.652C -0.500002 9.45026 0.967981 10.918 2.767 10.918L 2.767 9.918C 1.52003 9.918 0.499998 8.89774 0.499998 7.652L -0.500002 7.652Z"/>
</defs>
</svg>
